<mxfile host="app.diagrams.net" agent="Mozilla/5.0 (Macintosh; Intel Mac OS X 10_15_7) AppleWebKit/537.36 (KHTML, like Gecko) Chrome/135.0.0.0 Safari/537.36" version="26.2.14">
  <diagram name="Page-1" id="Op4VX-716ABaXQcr6RIm">
    <mxGraphModel dx="1426" dy="772" grid="1" gridSize="10" guides="1" tooltips="1" connect="1" arrows="1" fold="1" page="1" pageScale="1" pageWidth="827" pageHeight="1169" math="0" shadow="0">
      <root>
        <mxCell id="0" />
        <mxCell id="1" parent="0" />
        <mxCell id="8AQDxO6d6F2OpK49sx7A-9" style="edgeStyle=orthogonalEdgeStyle;rounded=0;orthogonalLoop=1;jettySize=auto;html=1;entryX=0;entryY=0.5;entryDx=0;entryDy=0;" edge="1" parent="1" source="8AQDxO6d6F2OpK49sx7A-1" target="8AQDxO6d6F2OpK49sx7A-4">
          <mxGeometry relative="1" as="geometry" />
        </mxCell>
        <mxCell id="8AQDxO6d6F2OpK49sx7A-1" value="&lt;b&gt;&lt;font&gt;Wyniki wyszukiwania dla biblioteki IEEE&lt;/font&gt;&lt;/b&gt;&lt;div&gt;&lt;font&gt;liczba prac = 130&lt;/font&gt;&lt;/div&gt;" style="rounded=1;whiteSpace=wrap;html=1;" vertex="1" parent="1">
          <mxGeometry x="80" y="160" width="120" height="80" as="geometry" />
        </mxCell>
        <mxCell id="8AQDxO6d6F2OpK49sx7A-8" style="edgeStyle=orthogonalEdgeStyle;rounded=0;orthogonalLoop=1;jettySize=auto;html=1;entryX=0;entryY=0.5;entryDx=0;entryDy=0;" edge="1" parent="1" source="8AQDxO6d6F2OpK49sx7A-2" target="8AQDxO6d6F2OpK49sx7A-5">
          <mxGeometry relative="1" as="geometry" />
        </mxCell>
        <mxCell id="8AQDxO6d6F2OpK49sx7A-2" value="&lt;b&gt;&lt;font&gt;Wyniki wyszukiwania dla biblioteki Scopus&lt;/font&gt;&lt;/b&gt;&lt;div&gt;&lt;font&gt;liczba prac = 452&lt;/font&gt;&lt;/div&gt;" style="rounded=1;whiteSpace=wrap;html=1;" vertex="1" parent="1">
          <mxGeometry x="80" y="280" width="120" height="80" as="geometry" />
        </mxCell>
        <mxCell id="8AQDxO6d6F2OpK49sx7A-7" style="edgeStyle=orthogonalEdgeStyle;rounded=0;orthogonalLoop=1;jettySize=auto;html=1;" edge="1" parent="1" source="8AQDxO6d6F2OpK49sx7A-3" target="8AQDxO6d6F2OpK49sx7A-6">
          <mxGeometry relative="1" as="geometry" />
        </mxCell>
        <mxCell id="8AQDxO6d6F2OpK49sx7A-3" value="&lt;b&gt;&lt;font&gt;Wyniki wyszukiwania dla Google Scholar&lt;/font&gt;&lt;/b&gt;&lt;div&gt;&lt;font&gt;liczba prac = 600&lt;/font&gt;&lt;/div&gt;" style="rounded=1;whiteSpace=wrap;html=1;" vertex="1" parent="1">
          <mxGeometry x="80" y="400" width="120" height="80" as="geometry" />
        </mxCell>
        <mxCell id="8AQDxO6d6F2OpK49sx7A-15" style="edgeStyle=orthogonalEdgeStyle;rounded=0;orthogonalLoop=1;jettySize=auto;html=1;entryX=0;entryY=0.5;entryDx=0;entryDy=0;" edge="1" parent="1" target="8AQDxO6d6F2OpK49sx7A-10">
          <mxGeometry relative="1" as="geometry">
            <mxPoint x="380" y="200" as="sourcePoint" />
            <Array as="points">
              <mxPoint x="380" y="201" />
              <mxPoint x="390" y="201" />
              <mxPoint x="390" y="320" />
            </Array>
          </mxGeometry>
        </mxCell>
        <mxCell id="8AQDxO6d6F2OpK49sx7A-4" value="&lt;div&gt;&lt;b&gt;Biblioteka IEEE&lt;/b&gt;&lt;/div&gt;&lt;div&gt;&lt;font&gt;liczba prac = 40&lt;/font&gt;&lt;/div&gt;" style="rounded=1;whiteSpace=wrap;html=1;" vertex="1" parent="1">
          <mxGeometry x="260" y="160" width="120" height="80" as="geometry" />
        </mxCell>
        <mxCell id="8AQDxO6d6F2OpK49sx7A-14" style="edgeStyle=orthogonalEdgeStyle;rounded=0;orthogonalLoop=1;jettySize=auto;html=1;entryX=0;entryY=0.5;entryDx=0;entryDy=0;" edge="1" parent="1" source="8AQDxO6d6F2OpK49sx7A-5" target="8AQDxO6d6F2OpK49sx7A-10">
          <mxGeometry relative="1" as="geometry" />
        </mxCell>
        <mxCell id="8AQDxO6d6F2OpK49sx7A-5" value="&lt;div&gt;&lt;b&gt;Biblioteka Scopus&lt;/b&gt;&lt;/div&gt;&lt;div&gt;&lt;font&gt;liczba prac = 60&lt;/font&gt;&lt;/div&gt;" style="rounded=1;whiteSpace=wrap;html=1;" vertex="1" parent="1">
          <mxGeometry x="260" y="280" width="120" height="80" as="geometry" />
        </mxCell>
        <mxCell id="8AQDxO6d6F2OpK49sx7A-13" style="edgeStyle=orthogonalEdgeStyle;rounded=0;orthogonalLoop=1;jettySize=auto;html=1;entryX=0;entryY=0.5;entryDx=0;entryDy=0;" edge="1" parent="1" source="8AQDxO6d6F2OpK49sx7A-6" target="8AQDxO6d6F2OpK49sx7A-10">
          <mxGeometry relative="1" as="geometry">
            <Array as="points">
              <mxPoint x="390" y="440" />
              <mxPoint x="390" y="320" />
            </Array>
          </mxGeometry>
        </mxCell>
        <mxCell id="8AQDxO6d6F2OpK49sx7A-6" value="&lt;div&gt;&lt;span style=&quot;background-color: transparent; color: light-dark(rgb(0, 0, 0), rgb(255, 255, 255));&quot;&gt;&lt;b&gt;Google Scholar&lt;/b&gt;&lt;/span&gt;&lt;/div&gt;&lt;div&gt;&lt;span style=&quot;background-color: transparent; color: light-dark(rgb(0, 0, 0), rgb(255, 255, 255));&quot;&gt;liczba prac = 93&lt;/span&gt;&lt;/div&gt;" style="rounded=1;whiteSpace=wrap;html=1;" vertex="1" parent="1">
          <mxGeometry x="260" y="400" width="120" height="80" as="geometry" />
        </mxCell>
        <mxCell id="8AQDxO6d6F2OpK49sx7A-16" style="edgeStyle=orthogonalEdgeStyle;rounded=0;orthogonalLoop=1;jettySize=auto;html=1;entryX=0;entryY=0.5;entryDx=0;entryDy=0;" edge="1" parent="1" source="8AQDxO6d6F2OpK49sx7A-10" target="8AQDxO6d6F2OpK49sx7A-11">
          <mxGeometry relative="1" as="geometry" />
        </mxCell>
        <mxCell id="8AQDxO6d6F2OpK49sx7A-10" value="&lt;div&gt;&lt;b&gt;Prace po usunięciu duplikatów&lt;/b&gt;&lt;/div&gt;&lt;div&gt;&lt;span style=&quot;background-color: transparent; color: light-dark(rgb(0, 0, 0), rgb(255, 255, 255));&quot;&gt;liczba prac = 159&lt;/span&gt;&lt;/div&gt;" style="rounded=1;whiteSpace=wrap;html=1;" vertex="1" parent="1">
          <mxGeometry x="440" y="280" width="120" height="80" as="geometry" />
        </mxCell>
        <mxCell id="8AQDxO6d6F2OpK49sx7A-18" style="edgeStyle=orthogonalEdgeStyle;rounded=0;orthogonalLoop=1;jettySize=auto;html=1;entryX=0;entryY=0.5;entryDx=0;entryDy=0;" edge="1" parent="1" source="8AQDxO6d6F2OpK49sx7A-11" target="8AQDxO6d6F2OpK49sx7A-12">
          <mxGeometry relative="1" as="geometry" />
        </mxCell>
        <mxCell id="8AQDxO6d6F2OpK49sx7A-11" value="&lt;div&gt;&lt;b&gt;Prace po analizie abstraktów&lt;/b&gt;&lt;/div&gt;&lt;div&gt;&lt;span style=&quot;background-color: transparent; color: light-dark(rgb(0, 0, 0), rgb(255, 255, 255));&quot;&gt;liczba prac = 52&lt;/span&gt;&lt;/div&gt;" style="rounded=1;whiteSpace=wrap;html=1;" vertex="1" parent="1">
          <mxGeometry x="620" y="280" width="120" height="80" as="geometry" />
        </mxCell>
        <mxCell id="8AQDxO6d6F2OpK49sx7A-19" style="edgeStyle=orthogonalEdgeStyle;rounded=0;orthogonalLoop=1;jettySize=auto;html=1;entryX=0;entryY=0.5;entryDx=0;entryDy=0;" edge="1" parent="1" source="8AQDxO6d6F2OpK49sx7A-12" target="8AQDxO6d6F2OpK49sx7A-17">
          <mxGeometry relative="1" as="geometry" />
        </mxCell>
        <mxCell id="8AQDxO6d6F2OpK49sx7A-12" value="&lt;div&gt;&lt;b&gt;Prace po analizie treści&lt;/b&gt;&lt;/div&gt;&lt;div&gt;&lt;span style=&quot;background-color: transparent; color: light-dark(rgb(0, 0, 0), rgb(255, 255, 255));&quot;&gt;liczba prac = 31&lt;/span&gt;&lt;/div&gt;" style="rounded=1;whiteSpace=wrap;html=1;" vertex="1" parent="1">
          <mxGeometry x="800" y="280" width="120" height="80" as="geometry" />
        </mxCell>
        <mxCell id="8AQDxO6d6F2OpK49sx7A-17" value="&lt;div&gt;&lt;b&gt;Prace po analizie bibliografii&lt;/b&gt;&lt;/div&gt;&lt;div&gt;&lt;span style=&quot;background-color: transparent; color: light-dark(rgb(0, 0, 0), rgb(255, 255, 255));&quot;&gt;liczba prac = 33&lt;/span&gt;&lt;/div&gt;" style="rounded=1;whiteSpace=wrap;html=1;" vertex="1" parent="1">
          <mxGeometry x="980" y="280" width="120" height="80" as="geometry" />
        </mxCell>
        <mxCell id="8AQDxO6d6F2OpK49sx7A-21" value="" style="rounded=0;whiteSpace=wrap;html=1;dashed=1;fillColor=none;" vertex="1" parent="1">
          <mxGeometry x="220" y="135" width="20" height="370" as="geometry" />
        </mxCell>
        <mxCell id="8AQDxO6d6F2OpK49sx7A-22" value="" style="rounded=0;whiteSpace=wrap;html=1;dashed=1;fillColor=none;" vertex="1" parent="1">
          <mxGeometry x="404" y="135" width="20" height="370" as="geometry" />
        </mxCell>
        <mxCell id="8AQDxO6d6F2OpK49sx7A-23" value="" style="rounded=0;whiteSpace=wrap;html=1;dashed=1;fillColor=none;" vertex="1" parent="1">
          <mxGeometry x="580" y="135" width="20" height="370" as="geometry" />
        </mxCell>
        <mxCell id="8AQDxO6d6F2OpK49sx7A-25" value="" style="rounded=0;whiteSpace=wrap;html=1;dashed=1;fillColor=none;" vertex="1" parent="1">
          <mxGeometry x="760" y="135" width="20" height="370" as="geometry" />
        </mxCell>
        <mxCell id="8AQDxO6d6F2OpK49sx7A-26" value="" style="rounded=0;whiteSpace=wrap;html=1;dashed=1;fillColor=none;" vertex="1" parent="1">
          <mxGeometry x="940" y="135" width="20" height="370" as="geometry" />
        </mxCell>
        <mxCell id="8AQDxO6d6F2OpK49sx7A-27" value="&lt;font style=&quot;font-size: 14px;&quot;&gt;Analiza tytułów&lt;/font&gt;" style="text;html=1;align=center;verticalAlign=middle;resizable=0;points=[];autosize=1;strokeColor=none;fillColor=none;" vertex="1" parent="1">
          <mxGeometry x="170" y="105" width="120" height="30" as="geometry" />
        </mxCell>
        <mxCell id="8AQDxO6d6F2OpK49sx7A-28" value="&lt;font style=&quot;font-size: 14px;&quot;&gt;Usunięcie duplikatów&lt;/font&gt;" style="text;html=1;align=center;verticalAlign=middle;resizable=0;points=[];autosize=1;strokeColor=none;fillColor=none;" vertex="1" parent="1">
          <mxGeometry x="334" y="105" width="160" height="30" as="geometry" />
        </mxCell>
        <mxCell id="8AQDxO6d6F2OpK49sx7A-29" value="&lt;font style=&quot;font-size: 14px;&quot;&gt;Analiza abstraktów&lt;/font&gt;" style="text;html=1;align=center;verticalAlign=middle;resizable=0;points=[];autosize=1;strokeColor=none;fillColor=none;" vertex="1" parent="1">
          <mxGeometry x="520" y="105" width="140" height="30" as="geometry" />
        </mxCell>
        <mxCell id="8AQDxO6d6F2OpK49sx7A-30" value="&lt;font style=&quot;font-size: 14px;&quot;&gt;Analiza treści&lt;/font&gt;" style="text;html=1;align=center;verticalAlign=middle;resizable=0;points=[];autosize=1;strokeColor=none;fillColor=none;" vertex="1" parent="1">
          <mxGeometry x="715" y="105" width="110" height="30" as="geometry" />
        </mxCell>
        <mxCell id="8AQDxO6d6F2OpK49sx7A-31" value="&lt;font style=&quot;font-size: 14px;&quot;&gt;Analiza bibliografii&lt;/font&gt;" style="text;html=1;align=center;verticalAlign=middle;resizable=0;points=[];autosize=1;strokeColor=none;fillColor=none;" vertex="1" parent="1">
          <mxGeometry x="880" y="105" width="140" height="30" as="geometry" />
        </mxCell>
      </root>
    </mxGraphModel>
  </diagram>
</mxfile>
